<svg width="24" height="31" viewBox="0 0 24 31" fill="none" xmlns="http://www.w3.org/2000/svg">
<path d="M23.9585 0.660065C23.9221 0.578712 23.863 0.509694 23.7882 0.461421C23.7134 0.413148 23.6262 0.387705 23.5373 0.38819H10.4995C10.4212 0.388321 10.3441 0.408129 10.2755 0.445801C10.2068 0.483472 10.1486 0.537803 10.1064 0.603815L0.0822939 16.5413C0.0340351 16.6107 0.00583936 16.6921 0.000813382 16.7765C-0.00421259 16.8609 0.0141262 16.9451 0.0538094 17.0198C0.0934926 17.0944 0.15298 17.1566 0.225716 17.1996C0.298451 17.2425 0.381612 17.2645 0.466035 17.2632H7.64479L1.30839 29.685C1.27201 29.7589 1.25491 29.8408 1.25869 29.9231C1.26247 30.0054 1.287 30.0854 1.33 30.1556C1.37299 30.2258 1.43305 30.284 1.50456 30.3246C1.57607 30.3653 1.6567 30.3872 1.73893 30.3882H4.54679C4.61175 30.3886 4.67608 30.3755 4.7357 30.3497C4.79532 30.3239 4.84892 30.2859 4.89309 30.2382L21.3378 12.4351C21.4031 12.3684 21.447 12.2837 21.4639 12.1919C21.4809 12.1001 21.47 12.0053 21.4328 11.9197C21.3956 11.8341 21.3337 11.7615 21.2551 11.7114C21.1765 11.6612 21.0847 11.6357 20.9915 11.6382H14.6832L23.8836 1.15694C23.9429 1.09035 23.9816 1.00791 23.9949 0.919667C24.0082 0.831428 23.9955 0.741221 23.9585 0.660065Z" fill="#2B788B"/>
</svg>
